<mxfile host="app.diagrams.net" modified="2023-09-08T17:07:24.311Z" agent="Mozilla/5.0 (X11; Ubuntu; Linux x86_64; rv:109.0) Gecko/20100101 Firefox/116.0" etag="57nhkJuQYPvxwlFyOxAN" version="21.7.3" type="github">
  <diagram name="Page-1" id="2KHofViqdArEMS4rhggh">
    <mxGraphModel dx="1219" dy="445" grid="1" gridSize="10" guides="1" tooltips="1" connect="1" arrows="1" fold="1" page="0" pageScale="1" pageWidth="850" pageHeight="1100" math="0" shadow="0">
      <root>
        <mxCell id="0" />
        <mxCell id="1" parent="0" />
        <mxCell id="c8slE1L9noB9dwJdRd24-3" style="edgeStyle=orthogonalEdgeStyle;rounded=0;orthogonalLoop=1;jettySize=auto;html=1;exitX=1;exitY=0.5;exitDx=0;exitDy=0;" edge="1" parent="1" source="c8slE1L9noB9dwJdRd24-1" target="c8slE1L9noB9dwJdRd24-2">
          <mxGeometry relative="1" as="geometry" />
        </mxCell>
        <mxCell id="c8slE1L9noB9dwJdRd24-1" value="Indent has been issued" style="ellipse;whiteSpace=wrap;html=1;" vertex="1" parent="1">
          <mxGeometry x="-120" y="140" width="120" height="80" as="geometry" />
        </mxCell>
        <mxCell id="c8slE1L9noB9dwJdRd24-20" value="" style="edgeStyle=orthogonalEdgeStyle;rounded=0;orthogonalLoop=1;jettySize=auto;html=1;" edge="1" parent="1">
          <mxGeometry relative="1" as="geometry">
            <mxPoint x="230" y="181" as="sourcePoint" />
            <mxPoint x="340" y="180" as="targetPoint" />
            <Array as="points">
              <mxPoint x="230" y="180" />
              <mxPoint x="300" y="180" />
            </Array>
          </mxGeometry>
        </mxCell>
        <mxCell id="c8slE1L9noB9dwJdRd24-2" value="&lt;div&gt;Purchase&lt;/div&gt;&lt;div&gt;Expert&lt;/div&gt;" style="shape=umlActor;verticalLabelPosition=bottom;verticalAlign=top;html=1;outlineConnect=0;" vertex="1" parent="1">
          <mxGeometry x="200" y="150" width="30" height="60" as="geometry" />
        </mxCell>
        <mxCell id="c8slE1L9noB9dwJdRd24-6" value="" style="endArrow=none;dashed=1;html=1;rounded=0;dashPattern=8 8;" edge="1" parent="1" source="c8slE1L9noB9dwJdRd24-27">
          <mxGeometry width="50" height="50" relative="1" as="geometry">
            <mxPoint x="80" y="307" as="sourcePoint" />
            <mxPoint x="80" y="53" as="targetPoint" />
          </mxGeometry>
        </mxCell>
        <mxCell id="c8slE1L9noB9dwJdRd24-7" value="Purchase Departement" style="html=1;whiteSpace=wrap;container=1;recursiveResize=0;collapsible=0;" vertex="1" parent="1">
          <mxGeometry x="100" width="210" height="70" as="geometry" />
        </mxCell>
        <mxCell id="c8slE1L9noB9dwJdRd24-8" value="" style="triangle;html=1;whiteSpace=wrap;" vertex="1" parent="c8slE1L9noB9dwJdRd24-7">
          <mxGeometry x="20" y="20" width="20" height="30" as="geometry" />
        </mxCell>
        <mxCell id="c8slE1L9noB9dwJdRd24-9" value="Industrial Sector" style="html=1;whiteSpace=wrap;container=1;recursiveResize=0;collapsible=0;" vertex="1" parent="1">
          <mxGeometry x="-150" width="210" height="70" as="geometry" />
        </mxCell>
        <mxCell id="c8slE1L9noB9dwJdRd24-10" value="" style="triangle;html=1;whiteSpace=wrap;rotation=-180;" vertex="1" parent="c8slE1L9noB9dwJdRd24-9">
          <mxGeometry x="170" y="20" width="20" height="30" as="geometry" />
        </mxCell>
        <mxCell id="c8slE1L9noB9dwJdRd24-14" value="Suppliers List" style="swimlane;fontStyle=0;childLayout=stackLayout;horizontal=1;startSize=30;horizontalStack=0;resizeParent=1;resizeParentMax=0;resizeLast=0;collapsible=1;marginBottom=0;whiteSpace=wrap;html=1;" vertex="1" parent="1">
          <mxGeometry x="350" y="118" width="140" height="150" as="geometry" />
        </mxCell>
        <mxCell id="c8slE1L9noB9dwJdRd24-23" style="edgeStyle=orthogonalEdgeStyle;rounded=0;orthogonalLoop=1;jettySize=auto;html=1;exitX=1;exitY=0.5;exitDx=0;exitDy=0;" edge="1" parent="c8slE1L9noB9dwJdRd24-14" source="c8slE1L9noB9dwJdRd24-15">
          <mxGeometry relative="1" as="geometry">
            <mxPoint x="190" y="-38" as="targetPoint" />
            <Array as="points">
              <mxPoint x="160" y="45" />
              <mxPoint x="160" y="-38" />
            </Array>
          </mxGeometry>
        </mxCell>
        <mxCell id="c8slE1L9noB9dwJdRd24-15" value="&lt;div&gt;Supplier 1&lt;/div&gt;" style="text;strokeColor=none;fillColor=none;align=left;verticalAlign=middle;spacingLeft=4;spacingRight=4;overflow=hidden;points=[[0,0.5],[1,0.5]];portConstraint=eastwest;rotatable=0;whiteSpace=wrap;html=1;" vertex="1" parent="c8slE1L9noB9dwJdRd24-14">
          <mxGeometry y="30" width="140" height="30" as="geometry" />
        </mxCell>
        <mxCell id="c8slE1L9noB9dwJdRd24-21" value="&lt;div&gt;Supplier 2&lt;br&gt;&lt;/div&gt;" style="text;strokeColor=none;fillColor=none;align=left;verticalAlign=middle;spacingLeft=4;spacingRight=4;overflow=hidden;points=[[0,0.5],[1,0.5]];portConstraint=eastwest;rotatable=0;whiteSpace=wrap;html=1;" vertex="1" parent="c8slE1L9noB9dwJdRd24-14">
          <mxGeometry y="60" width="140" height="30" as="geometry" />
        </mxCell>
        <mxCell id="c8slE1L9noB9dwJdRd24-16" value="&lt;div&gt;Supplier 3&lt;br&gt;&lt;/div&gt;" style="text;strokeColor=none;fillColor=none;align=left;verticalAlign=middle;spacingLeft=4;spacingRight=4;overflow=hidden;points=[[0,0.5],[1,0.5]];portConstraint=eastwest;rotatable=0;whiteSpace=wrap;html=1;" vertex="1" parent="c8slE1L9noB9dwJdRd24-14">
          <mxGeometry y="90" width="140" height="30" as="geometry" />
        </mxCell>
        <mxCell id="c8slE1L9noB9dwJdRd24-17" value="Supplier X" style="text;strokeColor=none;fillColor=none;align=left;verticalAlign=middle;spacingLeft=4;spacingRight=4;overflow=hidden;points=[[0,0.5],[1,0.5]];portConstraint=eastwest;rotatable=0;whiteSpace=wrap;html=1;" vertex="1" parent="c8slE1L9noB9dwJdRd24-14">
          <mxGeometry y="120" width="140" height="30" as="geometry" />
        </mxCell>
        <mxCell id="c8slE1L9noB9dwJdRd24-24" value="Declines" style="ellipse;whiteSpace=wrap;html=1;" vertex="1" parent="1">
          <mxGeometry x="540" y="60" width="120" height="38" as="geometry" />
        </mxCell>
        <mxCell id="c8slE1L9noB9dwJdRd24-25" value="&lt;div&gt;Technical&lt;/div&gt;&lt;div&gt;Correspondence&lt;br&gt;&lt;/div&gt;" style="text;html=1;strokeColor=none;fillColor=none;align=center;verticalAlign=middle;whiteSpace=wrap;rounded=0;" vertex="1" parent="1">
          <mxGeometry x="250" y="150" width="60" height="30" as="geometry" />
        </mxCell>
        <mxCell id="c8slE1L9noB9dwJdRd24-26" value="" style="endArrow=none;dashed=1;html=1;rounded=0;dashPattern=8 8;" edge="1" parent="1" target="c8slE1L9noB9dwJdRd24-27">
          <mxGeometry width="50" height="50" relative="1" as="geometry">
            <mxPoint x="80" y="307" as="sourcePoint" />
            <mxPoint x="80" y="53" as="targetPoint" />
          </mxGeometry>
        </mxCell>
        <mxCell id="c8slE1L9noB9dwJdRd24-27" value="&lt;div&gt;Purchase Expert&lt;/div&gt;&lt;div&gt;Assignement&lt;/div&gt;" style="text;html=1;strokeColor=none;fillColor=none;align=center;verticalAlign=middle;whiteSpace=wrap;rounded=0;" vertex="1" parent="1">
          <mxGeometry x="20" y="140" width="120" height="30" as="geometry" />
        </mxCell>
      </root>
    </mxGraphModel>
  </diagram>
</mxfile>
